<?xml version="1.0" encoding="utf-8"?>
<svg version="1.1" id="svg4172" x="0px" y="0px" width="160px" height="108px" viewBox="0 0 328 222" enable-background="new 0 0 328 222" xmlns="http://www.w3.org/2000/svg">
  <g id="layer1" transform="translate(0,-830.36225)">
    <path id="path4160" fill="#B20005" d="M41.905,1051.341c-0.825-0.561-2.336-1.025-3.357-1.033 c-2.929-0.023-14.716-5.938-19.438-9.754c-8.495-6.862-15.929-19.451-18.315-31.018c-1.03-4.988-1.05-8.133-0.1-15.5 c1.458-11.305,3.929-16.635,11.833-25.526c8.756-9.851,10.866-13.067,12.85-19.581c3.368-11.06,0.4-22.991-7.869-31.636 c-8.412-8.794-13.13-17.815-14.128-27.011c-0.268-2.469-0.646-5.614-0.841-6.989c-0.406-2.861,2.327-14.69,4.678-20.25 c0.873-2.062,2.734-5.254,4.138-7.094c1.403-1.839,2.551-3.806,2.551-4.37c0-1.343,12.495-11.732,17.038-14.167 c16.591-8.891,38.316-8.135,50.822,1.77c2.16,1.711,4.168,3.111,4.463,3.111c0.91,0,12.159,12.092,12.465,13.398 c0.271,1.164-5.706,11.919-7.772,13.985c-0.609,0.61-4.236-2.204-9.99-7.75c-10.287-9.917-15.137-12.468-24.279-12.775 c-7.968-0.268-12.437,0.753-16.43,3.751c-1.75,1.314-3.621,2.391-4.157,2.391c-1.699,0-10.069,10.031-12.639,15.146 c-3.811,7.588-3.579,18.128,0.562,25.5c1.014,1.804,4.599,6.56,7.967,10.567c5.022,5.975,7.955,10.565,9.447,14.787 c0.097,0.275,0.424,1.175,0.727,2c6.228,17.002,1.544,35.886-12.985,52.358c-9.981,11.315-13.144,20.687-10.714,31.749 c2.695,12.27,16.974,25.189,30.256,27.375c4.935,0.812,13.494-0.918,17.221-3.479c1.375-0.945,3.02-1.895,3.655-2.111 c0.636-0.215,5.259-4.33,10.273-9.143c5.016-4.812,9.445-8.749,9.845-8.748c0.399,0,2.259,3.408,4.132,7.573l3.404,7.572 l-8.404,8.479c-6.718,6.777-10.112,9.321-16.905,12.666c-8.023,3.95-9.061,4.201-18.5,4.479 C47.743,1052.231,42.754,1051.917,41.905,1051.341L41.905,1051.341z M206.798,1051.853c-0.241-0.24-1.635-0.655-3.096-0.92 c-3.757-0.682-17.522-7.346-18.491-8.952c-0.443-0.736-1.579-1.622-2.523-1.97c-3.273-1.201-14.783-17.549-14.783-20.996 c0-0.707,2.239-3.633,4.978-6.504c3.431-3.597,5.761-5.219,7.5-5.219c1.387,0,2.557,0.338,2.599,0.75 c0.713,6.987,7.157,15.65,15.658,21.048c10.062,6.389,19.61,7.334,29.167,2.888c5.01-2.331,74.929-68.102,79.098-74.406 c2.181-3.296,2.498-4.865,2.479-12.279c-0.025-9.692-1.254-13.538-6.387-20c-4.1-5.161-57.954-62.294-64.904-68.856 c-4.702-4.438-7.729-6.111-12.187-6.734c-6.14-0.859-13.859-0.555-16.079,0.633c-1.332,0.712-2.646,1.29-2.921,1.282 c-4.33-0.117-15.16,9.7-18.849,17.085c-1.261,2.524-2.739,4.59-3.287,4.59c-0.547,0-3.441-2.567-6.432-5.705 c-6.276-6.584-6.281-7.07-0.136-15.123c4.767-6.247,10.012-10.9,15.365-13.631c2.11-1.077,4.963-2.708,6.338-3.625 c2.932-1.956,6.779-2.908,17.771-4.396c7.302-0.989,21.015,3.204,28.154,8.608c2.813,2.129,5.443,3.909,5.845,3.956 c1.473,0.169,62.422,65.59,66.069,70.916c5.671,8.278,8.308,15.543,9.765,26.903c1.034,8.07-1.716,18.382-7.892,29.596 c-1.186,2.152-74.648,72.322-77.499,74.023c-4.361,2.605-6.793,3.898-7.713,4.102c-0.551,0.121-3.25,0.925-6,1.787 C223.911,1052.112,207.908,1052.964,206.798,1051.853z"/>
    <path id="path-1" d="M 134.113 835.953 C 137.06 835.953 142.058 837.199 146.37 838.784 C 147.659 839.194 148.906 839.709 150.166 840.36 C 151.637 841.057 152.849 841.764 153.618 842.417 C 153.65 842.444 153.68 842.479 153.708 842.521 C 158.23 845.678 163.484 850.756 171.617 859.02 C 191.499 879.223 225 914.823 225.51 916.288 C 225.726 916.909 226.662 918.541 227.59 919.916 C 231.655 925.941 233.851 933.754 233.845 942.179 C 233.835 957.729 229.492 963.608 191.522 999.465 C 185.143 1005.488 174.225 1015.817 167.258 1022.416 C 160.291 1029.015 154.034 1034.588 153.354 1034.797 C 152.674 1035.006 151.443 1035.751 150.618 1036.452 C 147.37 1039.213 136.194 1042.916 131.113 1042.916 C 128.274 1042.915 125.764 1042.737 125.534 1042.52 C 125.305 1042.302 123.543 1041.908 121.617 1041.642 C 118.208 1041.173 108.982 1037.249 105.269 1034.69 C 90.497 1024.507 82.003 1002.535 87.142 987.792 C 90.163 979.125 92.201 975.822 98.711 969.034 C 103.298 964.254 104.419 962.494 109.775 951.68 C 112.064 947.058 112.612 944.631 112.591 939.18 C 112.56 930.371 111.087 924.223 108.059 920.253 C 106.715 918.491 105.616 916.663 105.616 916.191 C 105.616 915.719 103.611 913.364 101.16 910.959 C 98.709 908.554 96.904 906.261 97.149 905.864 C 97.394 905.467 96.947 904.606 96.155 903.949 C 94.529 902.599 91.352 896.153 89.733 890.916 C 89.497 890.155 89.3 888.887 89.157 887.359 C 88.403 883.361 88.485 878.998 89.284 874.58 C 89.553 872.377 90.001 870.602 90.806 868.547 C 93.905 858.967 100.135 849.786 108.269 844.179 C 111.982 841.62 121.208 837.696 124.617 837.227 C 126.543 836.961 128.305 836.567 128.534 836.349 C 128.764 836.132 131.274 835.954 134.113 835.953 Z"/>
  </g>
</svg>